# xmcd
#
# Track frame offsets:
#	150
#	14633
#	42975
#	71988
#	83038
#	95523
#	125368
#	141058
#	154540
#	169955
#	194728
#	215000
#	235595
#	247200
#	274453
#	285808
#	307618
#
# Disc length: 4309 seconds
#
# Revision: 0
# Processed by: cddbd v1.4PL0 Copyright (c) Steve Scherf et al.
# Submitted via: EasyCDDAExtractor 4.5.0.2
#
DISCID=f710d311
DTITLE=Roy Buchanan - Second Album/That's What I Am Here For
DYEAR=1973
DGENRE=Blues
TTITLE0=Filthy Teddy
TTITLE1=After Hours
TTITLE2=Five Strings Blues
TTITLE3=Thank You Lord
TTITLE4=Treat Her Right
TTITLE5=I Won't Tell You No Lies
TTITLE6=Tribute To Elmore James
TTITLE7=She Once Lived Here
TTITLE8=My Baby Says She's Gonna Leave Me
TTITLE9=Hey Joe
TTITLE10=Home Is Where I Lost Her
TTITLE11=Rodney's Song
TTITLE12=That's What I Am Here For
TTITLE13=Roy's Bluz
TTITLE14=Voices
TTITLE15=Please Don't Turn Me Away
TTITLE16=Nephesh
EXTD=
EXTT0=
EXTT1=
EXTT2=
EXTT3=
EXTT4=
EXTT5=
EXTT6=
EXTT7=
EXTT8=
EXTT9=
EXTT10=
EXTT11=
EXTT12=
EXTT13=
EXTT14=
EXTT15=
EXTT16=
PLAYORDER=
